# xmcd CD database file
#
# Track frame offsets:
#	150
#	13803
#	28122
#	42853
#	57261
#	70965
#	84846
#	98452
#	111030
#	123299
#	138305
#	150203
#	166562
#
# Disc length: 2460 seconds
#
# Revision: 0
# Processed by: cddbd v1.5.2PL0 Copyright (c) Steve Scherf et al.
# Submitted via: CDex 1.51
#
DISCID=90099a0d
DTITLE=Various Artist - CitySky04
DYEAR=1995
DGENRE=Country
TTITLE0=WINDFLOWERS 風信子
TTITLE1=GREEN GREEN GRASS OF HOME 碧草如茵的家園
TTITLE2=THE SOUNDS OF SILENCE 寂靜之聲
TTITLE3=SCARBOUGH FAIR 史卡伯展覽會
TTITLE4=RHINESTONE COWBOY 水晶牛仔
TTITLE5=HEART OF GOLD 高貴的心
TTITLE6=LET ME BE THERE 讓我在你身邊
TTITLE7=LAUGHTY IN THE RAIN 雨中歡笑
TTITLE8=EL CONDOR PASA 老鷹之歌
TTITLE9=LONGER 天長地久
TTITLE10=FLY AWAY 遠走高飛
TTITLE11=CRYING 哭泣
TTITLE12=HONY 甜心
EXTD=YEAR: 1995
EXTT0=
EXTT1=
EXTT2=
EXTT3=
EXTT4=
EXTT5=
EXTT6=
EXTT7=
EXTT8=
EXTT9=
EXTT10=
EXTT11=
EXTT12=
PLAYORDER=
